<svg width="48" height="48" viewBox="0 0 48 48" fill="none" xmlns="http://www.w3.org/2000/svg">
<g id="logo_pplx">
<rect width="48" height="48" rx="8" fill="white"/>
<path id="Vector" fill-rule="evenodd" clip-rule="evenodd" d="M12.3539 6L22.94 15.4449V15.4427V6.02179H25.0007V15.4871L35.6342 6V16.7686H40V32.3012H35.6476V41.8901L25.0007 32.832V41.9941H22.94V32.9813L12.3659 42V32.3012H8V16.7686H12.3539V6ZM21.3865 18.7397H10.0607V30.3301H12.3633V26.674L21.3865 18.7397ZM14.4265 27.5486V37.6016L22.94 30.3404V20.0606L14.4265 27.5486ZM25.06 30.2444V20.0509L33.576 27.5394V32.3012H33.5869V37.499L25.06 30.2444ZM35.6476 30.3301H37.9393V18.7397H26.6979L35.6476 26.5919V30.3301ZM33.5735 16.7686V10.534L26.5855 16.7686H33.5735ZM21.4025 16.7686H14.4146V10.534L21.4025 16.7686Z" fill="#22B8CD"/>
</g>
</svg>
