<svg width="48" height="48" viewBox="0 0 48 48" fill="none" xmlns="http://www.w3.org/2000/svg">
<g id="logo_Grok">
<rect width="48" height="48" rx="8" fill="white"/>
<g id="grok" clip-path="url(#clip0_39_171)">
<path id="Vector" fill-rule="evenodd" clip-rule="evenodd" d="M19.905 28.935L31.872 20.0895C32.4585 19.6545 33.297 19.824 33.5775 20.4975C35.0475 24.051 34.3905 28.32 31.4625 31.251C28.536 34.182 24.462 34.824 20.739 33.36L16.6725 35.2455C22.506 39.237 29.589 38.25 34.0155 33.816C37.527 30.3 38.6145 25.5075 37.5975 21.186L37.6065 21.1965C36.132 14.8485 37.9695 12.3105 41.7315 7.122C41.8215 6.999 41.9115 6.876 42 6.75L37.0485 11.7075V11.6925L19.9005 28.938M17.4345 31.0845C13.2465 27.0795 13.9695 20.883 17.541 17.3085C20.1825 14.664 24.5115 13.584 28.29 15.171L32.3475 13.296C31.5042 12.6756 30.5814 12.1711 29.604 11.796C27.1467 10.7902 24.4468 10.5336 21.844 11.0583C19.2412 11.583 16.8517 12.8657 14.976 14.745C11.1765 18.549 9.981 24.399 12.033 29.391C13.566 33.1215 11.0535 35.76 8.523 38.424C7.6245 39.369 6.7245 40.3125 6 41.3115L17.43 31.089" fill="black"/>
</g>
</g>
<defs>
<clipPath id="clip0_39_171">
<rect width="36" height="36" fill="white" transform="translate(6 6)"/>
</clipPath>
</defs>
</svg>
